<svg width="16" height="16" viewBox="0 0 16 16" fill="none" xmlns="http://www.w3.org/2000/svg">
<path d="M12.9007 7.81352L11.4807 9.23352L10.5407 8.28686L5.40065 13.4269L2.33398 14.6669L1.33398 13.6669L2.57398 10.6002L7.71398 5.46019L6.76732 4.52019L8.18732 3.10019L12.9007 7.81352ZM11.174 2.00019C11.549 1.62566 12.0573 1.41528 12.5873 1.41528C13.1173 1.41528 13.6257 1.62566 14.0007 2.00019C14.3752 2.37519 14.5856 2.88352 14.5856 3.41352C14.5856 3.94353 14.3752 4.45186 14.0007 4.82686L12.7207 6.10686L9.89398 3.28019L11.174 2.00019ZM3.70732 11.3535L3.00065 13.0002L4.64732 12.2935L9.60065 7.33352L8.66732 6.40019L3.70732 11.3535Z" fill="#A8B0B9"/>
</svg>
